<mxfile host="app.diagrams.net" modified="2021-01-29T02:57:07.116Z" agent="5.0 (Windows NT 10.0; Win64; x64) AppleWebKit/537.36 (KHTML, like Gecko) Chrome/70.0.3538.77 Safari/537.36" etag="-Ge7iQqUVBYFImOz7IXM" version="14.2.7" type="github">
  <diagram id="z3GyR7A54I9U31B_GoPv" name="Page-1">
    <mxGraphModel dx="942" dy="624" grid="1" gridSize="10" guides="1" tooltips="1" connect="1" arrows="1" fold="1" page="1" pageScale="1" pageWidth="827" pageHeight="1169" math="0" shadow="0">
      <root>
        <mxCell id="0" />
        <mxCell id="1" parent="0" />
        <mxCell id="F7ufn9WYuUFmv6JX8Vxq-1" value="计算机基础及底层" style="whiteSpace=wrap;html=1;aspect=fixed;" parent="1" vertex="1">
          <mxGeometry x="170" y="60" width="80" height="80" as="geometry" />
        </mxCell>
        <mxCell id="F7ufn9WYuUFmv6JX8Vxq-2" value="设计模式" style="whiteSpace=wrap;html=1;aspect=fixed;" parent="1" vertex="1">
          <mxGeometry x="170" y="190" width="80" height="80" as="geometry" />
        </mxCell>
        <mxCell id="F7ufn9WYuUFmv6JX8Vxq-3" value="高并发与多线程" style="whiteSpace=wrap;html=1;aspect=fixed;" parent="1" vertex="1">
          <mxGeometry x="170" y="320" width="80" height="80" as="geometry" />
        </mxCell>
        <mxCell id="F7ufn9WYuUFmv6JX8Vxq-4" value="mysql优化" style="whiteSpace=wrap;html=1;aspect=fixed;" parent="1" vertex="1">
          <mxGeometry x="170" y="460" width="80" height="80" as="geometry" />
        </mxCell>
        <mxCell id="0BP6MFCRVOub9Gm3sT_m-1" value="JVM" style="whiteSpace=wrap;html=1;aspect=fixed;" parent="1" vertex="1">
          <mxGeometry x="170" y="725" width="80" height="80" as="geometry" />
        </mxCell>
        <mxCell id="in1QYTWhq0JFoHGU_2zg-1" value="内存模型" style="rounded=0;whiteSpace=wrap;html=1;" vertex="1" parent="1">
          <mxGeometry x="340" y="705" width="60" height="30" as="geometry" />
        </mxCell>
        <mxCell id="in1QYTWhq0JFoHGU_2zg-2" value="核心参数" style="rounded=0;whiteSpace=wrap;html=1;" vertex="1" parent="1">
          <mxGeometry x="340" y="810" width="60" height="30" as="geometry" />
        </mxCell>
        <mxCell id="in1QYTWhq0JFoHGU_2zg-3" value="垃圾回收机制" style="rounded=0;whiteSpace=wrap;html=1;" vertex="1" parent="1">
          <mxGeometry x="340" y="855" width="60" height="30" as="geometry" />
        </mxCell>
        <mxCell id="in1QYTWhq0JFoHGU_2zg-4" value="年轻代回收机制" style="rounded=0;whiteSpace=wrap;html=1;" vertex="1" parent="1">
          <mxGeometry x="450" y="780" width="60" height="30" as="geometry" />
        </mxCell>
        <mxCell id="in1QYTWhq0JFoHGU_2zg-5" value="老年代回收机制" style="rounded=0;whiteSpace=wrap;html=1;" vertex="1" parent="1">
          <mxGeometry x="450" y="825" width="60" height="30" as="geometry" />
        </mxCell>
        <mxCell id="in1QYTWhq0JFoHGU_2zg-6" value="方法区" style="rounded=0;whiteSpace=wrap;html=1;" vertex="1" parent="1">
          <mxGeometry x="450" y="660" width="60" height="30" as="geometry" />
        </mxCell>
        <mxCell id="in1QYTWhq0JFoHGU_2zg-7" value="堆内存" style="rounded=0;whiteSpace=wrap;html=1;" vertex="1" parent="1">
          <mxGeometry x="450" y="740" width="60" height="20" as="geometry" />
        </mxCell>
        <mxCell id="in1QYTWhq0JFoHGU_2zg-8" value="java 虚拟机栈" style="rounded=0;whiteSpace=wrap;html=1;" vertex="1" parent="1">
          <mxGeometry x="450" y="700" width="60" height="30" as="geometry" />
        </mxCell>
        <mxCell id="in1QYTWhq0JFoHGU_2zg-9" value="类加载机制" style="rounded=0;whiteSpace=wrap;html=1;" vertex="1" parent="1">
          <mxGeometry x="340" y="630" width="60" height="30" as="geometry" />
        </mxCell>
      </root>
    </mxGraphModel>
  </diagram>
</mxfile>
